<?xml version="1.0" encoding="UTF-8"?><svg id="Layer_2" xmlns="http://www.w3.org/2000/svg" width="101.23" height="165" viewBox="0 0 101.23 165"><g id="Layer_2-2"><g><polygon points="43.6 164.5 46.6 92.5 36.6 87.5 22.6 84.5 34.6 84.5 13.6 65.5 31.6 76.5 29.6 65.5 35.6 79.5 45.6 86.5 46.6 58.5 32.6 49.5 18.6 46.5 27.6 45.5 18.6 32.5 35.6 48.5 37.6 35.5 39.6 49.5 46.6 52.5 46.6 26.5 36.6 16.5 46.6 23.5 48.6 9.5 50.6 24.5 63.6 16.5 50.6 27.5 50.6 47.5 70.6 28.5 65.6 36.5 76.6 37.5 63.6 39.5 50.6 51.5 50.6 82.5 63.6 73.5 66.6 57.5 66.6 72.5 86.6 55.5 76.6 67.5 87.6 67.5 74.6 69.5 61.6 79.5 78.6 81.5 58.6 82.5 51.6 87.5 54.6 164.5 43.6 164.5" fill="none" stroke="#000" stroke-miterlimit="10"/><path d="M46.6,92.5c-14.67,5.8-27.88,3.19-32-4-.79-1.37-2.18-4.53-1-10-7.13-2.3-12.25-8.6-13-16-.73-7.2,2.78-14.22,9-18-4.57-5.66-5.72-13.34-3-20,4.05-9.9,14.35-11.89,15-12,1.72-1.79,11.82-12,28-12,15.28,0,25.05,9.1,27,11,.51,.07,12.41,1.89,17,13,4.23,10.24-1.51,19.26-2,20,6.35,3.95,9.89,11.03,9,18-1.09,8.51-8.61,15.45-18,16,1.58,4.84,.61,7.72,0,9-3.18,6.67-15.44,9.65-30,5" fill="none" stroke="#000" stroke-miterlimit="10"/></g></g></svg>