<?xml version="1.0" encoding="UTF-8"?><svg id="Layer_2" xmlns="http://www.w3.org/2000/svg" width="944.04" height="366" viewBox="0 0 944.04 366"><g id="Layer_1-2"><path d="M28.85,310c-.49-43.03,12.47-67.88,23-82,120.86-162.04,632.59,136.6,807-45,37.89-39.45,49.19-90.47,53-126" fill="none" stroke="#000" stroke-miterlimit="10"/><path d="M885.35,20.5c-2.35,19.86,12.07,36.08,27,37,15.98,.98,33.22-15.52,31-37h-58Z" fill="none" stroke="#000" stroke-miterlimit="10"/><path d="M.75,345.03c-2.35-19.86,12.07-36.08,27-37,15.98-.98,33.22,15.52,31,37H.75Z" fill="none" stroke="#000" stroke-miterlimit="10"/><rect x="13.35" y="346.5" width="7" height="19" fill="none" stroke="#000" stroke-miterlimit="10"/><rect x="38.35" y="346.5" width="7" height="19" fill="none" stroke="#000" stroke-miterlimit="10"/><rect x="899.35" y=".5" width="7" height="19" fill="none" stroke="#000" stroke-miterlimit="10"/><rect x="924.35" y=".5" width="7" height="19" fill="none" stroke="#000" stroke-miterlimit="10"/></g></svg>