<?xml version="1.0" encoding="UTF-8"?><svg id="Layer_2" xmlns="http://www.w3.org/2000/svg" width="125.56" height="410.28" viewBox="0 0 125.56 410.28"><g id="Layer_1-2"><path d="M6.54,20.5c-2.35,19.86,12.07,36.08,27,37,15.98,.98,33.22-15.52,31-37H6.54Z" fill="none" stroke="#000" stroke-miterlimit="10"/><rect x="20.54" y=".5" width="7" height="19" fill="none" stroke="#000" stroke-miterlimit="10"/><rect x="45.54" y=".5" width="7" height="19" fill="none" stroke="#000" stroke-miterlimit="10"/><path d="M5.54,389.3c-2.35-19.86,12.07-36.08,27-37,15.98-.98,33.22,15.52,31,37H5.54Z" fill="none" stroke="#000" stroke-miterlimit="10"/><rect x="18.13" y="390.78" width="7" height="19" fill="none" stroke="#000" stroke-miterlimit="10"/><rect x="43.13" y="390.78" width="7" height="19" fill="none" stroke="#000" stroke-miterlimit="10"/><path d="M32.05,352.25c87.72-82.08,98.65-113.17,91-126-13.16-22.07-80.89,10.57-110-19-27.44-27.87-4.89-95.1,20-150" fill="none" stroke="#000" stroke-miterlimit="10"/></g></svg>