<?xml version="1.0" encoding="UTF-8"?><svg id="Layer_2" xmlns="http://www.w3.org/2000/svg" width="531.72" height="607.53" viewBox="0 0 531.72 607.53"><g id="Layer_2-2"><g><path d="M441.09,153.03c5,5.69,12.13,14.17,20,25,15.47,21.28,27.14,42.42,25,44-1.07,.79-4.01-4.39-12-7-6.64-2.17-9.55-.1-16-2-5.67-1.67-9.94-4.94-13-8,4.45,6.13,7.6,10.57,10,14,1.77,2.53,2.84,4.1,5,5,3.11,1.3,5.44-.07,10,1,2.23,.52,3.94,1.38,5,2-.39,1.86-.74,4.73,0,8,.92,4.03,3.07,5.28,4,8,1.75,5.13-2.09,10.75-5,15-6.62,9.69-15.71,15.1-22,18-2.4-8.63-6.75-20.5-15-33-11.18-16.94-24.43-27.32-33-33,17.67,25.67,35.33,51.33,53,77,5.33-2.67,10.67-5.33,16-8,.73,4.52,1.5,12.04,0,21-2.05,12.28-6.97,18.99-18,40-2.77,5.27-7.02,13.54-12,24-.19,1.58-.35,4.04,0,7,.6,5.08,2.36,8.5,3,10,4.41,10.37-3.94,25.16-5,27-6.28,10.85-15.67,15.53-19,17-.04,2.79-.47,7.65-3,13-3.08,6.51-7.65,10.3-10,12-.21,1.54-2.97,19.22-19,27-10.81,5.24-21.09,2.8-24,2-3.11,4.62-8.08,5.53-10,4-1.82-1.45-2.05-6.02,1-10-1.12-1.31-2.65-3.31-4-6-3.97-7.88-3.08-15.05-3-20,.32-19.12-10.98-22.67-9-38,.59-4.6,2.52-11.31,9-19,2.91-11.31,.69-18.38-1-22-1.61-3.44-5.4-7.96-13-17-2.48-2.95-4.57-5.36-6-7,5.95-11.19,6.74-21.66,2-26-.87-.79-2.12-1.57-4-2-.89,1.89-2.5,4.58-5,5-4.48,.74-7.54-6.57-13-10-4.64-2.91-13.12-4.36-30,4-1.94,.43-4.8,.78-8,0-2.54-.62-3.32-1.66-5-2-2.22-.45-5.7,.26-11,6-.85,.17-2.31,.37-4,0-4.29-.94-5.53-4.53-10-7-1.39-.77-3.66-1.74-7-2-1.05-3.56-3.44-9.92-9-16-4.34-4.74-8.93-7.49-12-9-.33-.93-.54-2.08,0-3,.82-1.4,2.74-1.14,3-2,.38-1.29-3.71-2.55-5-5-1.07-2.02-.78-5.88,6-14,.97-6.45,.57-11.51,0-15-.74-4.52-1.71-6.05-1-9,.91-3.79,3.46-5.21,8-10,2.03-2.14,4.93-5.45,8-10,.94-.09,2.39-.31,4-1,3.44-1.48,5.33-4.1,6-5,2.74-3.65,9.18-10.35,19-20,4.21-.54,8.55-1.2,13-2,14.06-2.54,26.76-6.08,38-10,1.65,.57,4.13,1.52,7,3,7.48,3.85,9.5,7.15,21,16,4.97,3.83,8.69,6.36,14,7,2.07,.25,3.82,.14,5,0-.28-.15-2.77-1.56-3-4-.25-2.62,2.2-5.56,6-6,2.1-.25,5.25-.46,9,0,7.78,.95,12.29,4.05,17,6,4.85,2,12.25,3.73,23,2-.2-.09-3.48-1.57-4-5-.42-2.81,1.19-5.7,4-7-.98-.58-2.73-1.8-4-4-2.32-4.01-1.25-8.14-1-9-2.33,1-4.67,2-7,3-.97-.86-4.55-3.83-10-4-6.08-.19-10.13,3.23-11,4-5.46-2.04-8.36-4.84-10-7-2.63-3.47-2.66-6.18-6-9-2.8-2.37-6.99-4.07-8-3-.94,1.01,.45,4.94,11,18-1.2,.82-4.37,2.74-8,2-3.45-.7-5.42-3.42-8-7-1.47-2.03-3.52-5.35-5-10-.95,.97-2.35,2.07-4,2-3.17-.13-4.55-4.46-8-8-2.2-2.26-5.81-4.78-12-6,0,1.8,.31,4.26,2,6,1.47,1.52,3.33,1.84,4,2,2.82,.68,6.66,3.85,11,15-1.61-1.9-3.59-3.96-6-6-4.69-3.96-9.34-6.44-13-8-.05-1.48-.5-2.4-1-3-2.66-3.19-10.68-1.99-20,3-1.4,.28-3.54,.53-6,0-2.65-.57-4-1.68-5-1-1.08,.74-.28,2.58-1,5-.7,2.35-2.46,3.96-4,5-1.33,1-2.67,2-4,3-1.79,2.23-4.7,5.32-9,8-3.39,2.11-6.58,3.3-9,4-1.25-.47-2.61-1.12-4-2-5.32-3.39-7.88-8.31-9-11,1.52-1.74,3.72-4.74,5-9,.69-2.29,.94-4.35,1-6,.75,.93,2.05,2.26,4,3,2.04,.78,3.83,.55,7,0,2.8-.48,6.17-1.13,10-2,.89-.88,2.01-2.28,2-4-.02-2.11-1.74-3.43-4-6-1.33-1.52-3.16-3.81-5-7,4,.33,8,.67,12,1,.28-1,.83-2.49,2-4,.68-.88,1.4-1.53,2-2,1.72-.25,4.78-.92,8-3,3.19-2.06,5.06-4.54,6-6,6.33,.67,12.67,1.33,19,2,.58-.98,1.8-2.73,4-4,4.01-2.32,8.14-1.25,9-1-.9-.83-2.09-2.13-3-4-1.9-3.91-1.29-7.64-1-9-.88-.95-3.23-3.24-7-4-2.08-.42-3.85-.23-5,0-.15,.69-.67,3.48,1,6,.64,.97,1.41,1.6,2,2,.07,.82,.27,4.09-2,7-1.4,1.8-3.11,2.64-4,3-.64-1-1.88-2.66-4-4-2.91-1.84-5.77-2-7-2v-7c-7.19,4.17-9.88,3.97-11,3-.56-.49-.65-1.1-2-4-.82-1.75-1.54-3.14-2-4,.44-.28,1.12-.67,2-1,1.65-.62,2.31-.4,3-1,.82-.71,.59-1.63,1-3,.33-1.1,1.09-2.54,3-4h4c-.26-1.65-.35-4.05,1-6,1.42-2.04,4.63-2.72,11-4,2.15-.43,5.76-1.15,10-2-7.45-1.57-15.46-2.95-24-4-16.15-1.99-30.96-2.41-44-2,31.8,1.39,47.8,3.72,48,7,.1,1.74-4.23,3.74-13,6-2.58-.52-8.34-1.32-15,1-5.57,1.94-9.2,5.15-11,7-7.33-.33-14.67-.67-22-1,.06,.25,.85,4.25-2,7-1.96,1.89-4.4,1.99-5,2-1.2-.92-2.92-2.52-4-5-2.92-6.72,1.61-13.44,2-14-9.22,4.5-14.22,6.17-15,5-.46-.69,.54-2.35,3-5-9.33,5.67-18.67,11.33-28,17-.04,3.87-2.2,7.15-5,8-3.8,1.15-9.18-2.06-10-8,3.33-2.33,6.67-4.67,10-7-3.09-.32-4.76-.99-5-2-.45-1.85,3.89-4.85,13-9-5.16,1.76-10.51,3.75-16,6-11.89,4.88-22.53,10.22-31.91,15.56-5.03,13.81-10.06,27.63-15.09,41.44-.67,.19-4.35,1.15-8-1-4.41-2.6-4.95-7.5-5-8-4,5.67-8,11.33-12,17-4.67,.33-9.33,.67-14,1-4.33,2.67-8.67,5.33-13,8-.64,3.21-2.44,9.53-8,14-1,.81-2.01,1.46-3,2-2.33,1.33-4.67,2.67-7,4-7.33,13.67-14.67,27.33-22,41h-7c-9.78,22.45-39.56,98.44-11,184,23.5,70.39,80.42,129.13,152.18,156.6,6.9,2.64,13.95,4.99,21.11,7.03-6.17-1.88-11.62-3.82-16.29-5.63l-.77-1.55-2.23-4.45,9.05,4.22,5.95,2.78,4,1c.99-1.19,2-2.52,3-4,.04-.05,.07-.11,.1-.16,1.64-2.41,2.9-4.74,3.9-6.84,.87,.45,1.92,1.09,3,2,.82,.69,1.48,1.38,2,2h33c2-.77,4.71-1.6,8-2,3.18-.38,5.92-.25,8,0-1.47,.91-3.23,2.21-5,4-.01,.01-.03,.03-.03,.04-2.48,2.52-4.03,5.07-4.97,6.96,4.33,1,8.67,2,13,3l21-2c-.25-.58-1.71-4.1-.02-7.96,.01-.01,.01-.03,.02-.04,1.47-3.31,4.29-4.68,5-5-.07,.2-.91,2.49-.34,5.07,.21,.97,.62,1.98,1.34,2.93,1.77,2.33,4.32,2.88,5,3,5.11,.62,11.21,.84,18,0,2.11-.26,4.11-.6,6-1,1.77,.58,4.57,1.25,8,1,2-.15,3.69-.56,5-1,1.95-.05,4.74-.26,8-1,3.34-.76,5.8-1.78,8.07-2.77,3.08-1.35,5.8-2.65,9.93-3.23,1.97-.27,4.68-.44,8,0-2.51,1.13-5.28,2.33-8.3,3.56,.17,.01,.33,.01,.49,.02,70.38-26.9,127.53-84.41,151.81-158.58,29.58-90.35,5.62-190.81-62-260Zm-179-32c3.47,1.94,7.75,4.81,12,9,2.45,2.42,4.42,4.82,6,7-2.03,.91-7.76,3.13-14,1-1.59-.54-2.92-1.27-4-2l3-2-6-9,3-4Zm-14,11c1.91-1.91,3.98-2.69,5-3,.66,.59,1.34,1.25,2,2,2.77,3.13,4.21,6.46,5,9-2.42,.03-5.52-.17-9-1-2.32-.56-4.33-1.28-6-2,.79-2.59,2.24-4.24,3-5Zm-113,262c-2.2,3.55-5.02,5.75-7,7,.31,2.62,.71,6.41,1,11,.95,14.84-.4,19.26-1,21-1.26,3.65-3.11,6.63-5,9-5.19,.62-8.36,2.67-10,4-7.52,6.09-9.63,18.51-5,31,2.55,3.94,1.84,8.74-1,11-2.81,2.24-6.62,1.12-7,1,5.07,4.54,6.15,10.29,4,13-.28,.35-1.59,1.89-5,2,.5,2.24,1.38,5.42,3,9,2.94,6.49,6.22,9.67,5,12-.46,.88-1.66,1.84-5,2-28.86-31.61-41.21-54.93-47-71-2.58-7.15-7.72-23.6-20-43-6.64-10.48-8.37-10.8-12-18-8.74-17.35-7.97-34.06-7-51,.8-13.89,3.56-34.75,13-59l9,11c2.05-.65,5.6-1.47,10-1,5.31,.57,9.13,2.75,11,4-.6,.57-2.65,2.65-3,6-.47,4.54,2.6,7.61,3,8,1.58,.2,11.78,1.68,18,11,4.88,7.32,4.25,14.89,4,17,1.86,1.64,4.5,3.58,8,5,3.67,1.48,5.6,1.31,8,3,1.74,1.23,3.79,3.48,5,8,5.69-.53,10.21,.28,13,1,3.03,.78,13.07,3.77,20,13,.92,1.23,1.59,2.3,2,3,.54,1.69,3.41,11.27-2,20Zm327,24c-2.29,8.01-2.69,15.05-8,24-1.86,3.13-3.72,5.49-5,7-.26,.19-2.45,1.76-5,1-2.38-.71-4.08-3.17-4-6,.21-2.75,.74-6.19,2-10,1.94-5.88,4.81-10.22,7-13-.16-.32-1.78-3.64,0-7,1.33-2.52,4.06-4.08,7-4,1.82-1.66,3.98-3.96,6-7,2.77-4.17,4.22-8.14,5-11l5,5c-5.7,8.39-8.5,15.75-10,21Z" fill="none" stroke="#000" stroke-miterlimit="10"/><path d="M135.09,394.03c-2.2,3.55-5.02,5.75-7,7,.31,2.62,.71,6.41,1,11,.95,14.84-.4,19.26-1,21-1.26,3.65-3.11,6.63-5,9-5.19,.62-8.36,2.67-10,4-7.52,6.09-9.63,18.51-5,31,2.55,3.94,1.84,8.74-1,11-2.81,2.24-6.62,1.12-7,1,5.07,4.54,6.15,10.29,4,13-.28,.35-1.59,1.89-5,2,.5,2.24,1.38,5.42,3,9,2.94,6.49,6.22,9.67,5,12-.46,.88-1.66,1.84-5,2-28.86-31.61-41.21-54.93-47-71-2.58-7.15-7.72-23.6-20-43-6.64-10.48-8.37-10.8-12-18-8.74-17.35-7.97-34.06-7-51,.8-13.89,3.56-34.75,13-59l9,11c2.05-.65,5.6-1.47,10-1,5.31,.57,9.13,2.75,11,4-.6,.57-2.65,2.65-3,6-.47,4.54,2.6,7.61,3,8,1.58,.2,11.78,1.68,18,11,4.88,7.32,4.25,14.89,4,17,1.86,1.64,4.5,3.58,8,5,3.67,1.48,5.6,1.31,8,3,1.74,1.23,3.79,3.48,5,8,5.69-.53,10.21,.28,13,1,3.03,.78,13.07,3.77,20,13,.92,1.23,1.59,2.3,2,3,.54,1.69,3.41,11.27-2,20Z" fill="none" stroke="#000" stroke-miterlimit="10"/><path d="M260.09,140.03c-2.42,.03-5.52-.17-9-1-2.32-.56-4.33-1.28-6-2,.79-2.59,2.24-4.24,3-5,1.91-1.91,3.98-2.69,5-3,.66,.59,1.34,1.25,2,2,2.77,3.13,4.21,6.46,5,9Z" fill="none" stroke="#000" stroke-miterlimit="10"/><path d="M280.09,137.03c-2.03,.91-7.76,3.13-14,1-1.59-.54-2.92-1.27-4-2l3-2-6-9,3-4c3.47,1.94,7.75,4.81,12,9,2.45,2.42,4.42,4.82,6,7Z" fill="none" stroke="#000" stroke-miterlimit="10"/><path d="M351.28,571.61c-2.87,1.1-5.77,2.14-8.68,3.13,2.91-1.06,5.64-2.11,8.19-3.15,.17,.01,.33,.01,.49,.02Z" fill="none" stroke="#000" stroke-miterlimit="10"/><path d="M472.09,397.03c-5.7,8.39-8.5,15.75-10,21-2.29,8.01-2.69,15.05-8,24-1.86,3.13-3.72,5.49-5,7-.26,.19-2.45,1.76-5,1-2.38-.71-4.08-3.17-4-6,.21-2.75,.74-6.19,2-10,1.94-5.88,4.81-10.22,7-13-.16-.32-1.78-3.64,0-7,1.33-2.52,4.06-4.08,7-4,1.82-1.66,3.98-3.96,6-7,2.77-4.17,4.22-8.14,5-11l5,5Z" fill="none" stroke="#000" stroke-miterlimit="10"/><path d="M30.09,231.03c7.71-17.42,21.36-42.78,45-68,25.26-26.95,51.54-42.69,69.09-51.44" fill="none" stroke="#000" stroke-miterlimit="10"/><path d="M135.09,394.03c-2.2,3.55-5.02,5.75-7,7,.31,2.62,.71,6.41,1,11,.95,14.84-.4,19.26-1,21-1.26,3.65-3.11,6.63-5,9-5.19,.62-8.36,2.67-10,4-7.52,6.09-9.63,18.51-5,31,2.55,3.94,1.84,8.74-1,11-2.81,2.24-6.62,1.12-7,1,5.07,4.54,6.15,10.29,4,13-.28,.35-1.59,1.89-5,2,.5,2.24,1.38,5.42,3,9,2.94,6.49,6.22,9.67,5,12-.46,.88-1.66,1.84-5,2-28.86-31.61-41.21-54.93-47-71-2.58-7.15-7.72-23.6-20-43-6.64-10.48-8.37-10.8-12-18-8.74-17.35-7.97-34.06-7-51,.8-13.89,3.56-34.75,13-59l9,11c2.05-.65,5.6-1.47,10-1,5.31,.57,9.13,2.75,11,4-.6,.57-2.65,2.65-3,6-.47,4.54,2.6,7.61,3,8,1.58,.2,11.78,1.68,18,11,4.88,7.32,4.25,14.89,4,17,1.86,1.64,4.5,3.58,8,5,3.67,1.48,5.6,1.31,8,3,1.74,1.23,3.79,3.48,5,8,5.69-.53,10.21,.28,13,1,3.03,.78,13.07,3.77,20,13,.92,1.23,1.59,2.3,2,3,.54,1.69,3.41,11.27-2,20Z" fill="none" stroke="#000" stroke-miterlimit="10"/><path d="M472.09,397.03c-5.7,8.39-8.5,15.75-10,21-2.29,8.01-2.69,15.05-8,24-1.86,3.13-3.72,5.49-5,7-.26,.19-2.45,1.76-5,1-2.38-.71-4.08-3.17-4-6,.21-2.75,.74-6.19,2-10,1.94-5.88,4.81-10.22,7-13-.16-.32-1.78-3.64,0-7,1.33-2.52,4.06-4.08,7-4,1.82-1.66,3.98-3.96,6-7,2.77-4.17,4.22-8.14,5-11l5,5Z" fill="none" stroke="#000" stroke-miterlimit="10"/><path d="M406.09,146.03v6h2c1.27,2.82,3.17,6.34,6,10,3.13,4.06,6.39,6.98,9,9,.67,2,1.33,4,2,6l8,3,3-2,2-1c-1.26-1.32-2.59-2.65-4-4-2.72-2.6-5.41-4.92-8-7,0-.47-.09-1.76-1-3-1.08-1.47-2.58-1.9-3-2-1.56-3.61-5.33-10.76-13-14-1.01-.43-2.02-.75-3-1Z" fill="none" stroke="#000" stroke-miterlimit="10"/><path d="M421.09,145.03c-.45,.46,.96,2.67,2,4,2.33,2.98,3.67,2.63,5,5,1.16,2.07,.89,3.69,2,4,.77,.21,1.8-.32,2-1,.21-.73-.55-1.52-1-2-3.48-3.78-2.64-5.33-6-8-1.37-1.08-3.55-2.45-4-2Z" fill="none" stroke="#000" stroke-miterlimit="10"/><path d="M369.09,147.03l-2,3c-.07,.63-.17,2.44,1,4,.32,.43,.68,.76,1,1-.27,.87-.72,2.81,0,5,.27,.83,.65,1.5,1,2,3,1.33,6,2.67,9,4-1.65-2.32-3.35-4.99-5-8-2.16-3.95-3.78-7.68-5-11Z" fill="none" stroke="#000" stroke-miterlimit="10"/><path d="M384.09,148.03l-5,6c3.33,1.65,6.78,3.9,10,7,.34,.33,.68,.67,1,1,.9-.07,1.9-.09,3,0,2.99,.24,5.38,1.18,7,2-5.33-5.33-10.67-10.67-16-16Z" fill="none" stroke="#000" stroke-miterlimit="10"/><path d="M260.09,140.03c-2.42,.03-5.52-.17-9-1-2.32-.56-4.33-1.28-6-2,.79-2.59,2.24-4.24,3-5,1.91-1.91,3.98-2.69,5-3,.66,.59,1.34,1.25,2,2,2.77,3.13,4.21,6.46,5,9Z" fill="none" stroke="#000" stroke-miterlimit="10"/><path d="M280.09,137.03c-2.03,.91-7.76,3.13-14,1-1.59-.54-2.92-1.27-4-2l3-2-6-9,3-4c3.47,1.94,7.75,4.81,12,9,2.45,2.42,4.42,4.82,6,7Z" fill="none" stroke="#000" stroke-miterlimit="10"/><path d="M342.42,574.81c-19.26,6.98-46.05,13.88-78.33,14.22-28.84,.3-53.22-4.73-71.41-10.28,25.53,7.26,52.58,10.61,80.41,9.28,23.91-1.15,47.22-5.69,69.33-13.22Z" fill="none" stroke="#000" stroke-miterlimit="10"/><path d="M56.09,186.03c-1-.33-2-.67-3-1-.61,1.64-1.46,2.53-2,3-3.06,2.66-7.94,1.75-12,1-1.77-.33-3.17-.74-4-1,.92-.37,2.36-1,4-2,2.88-1.76,3.71-3,6-4,1.06-.46,2.71-.99,5-1-1.84-1.31-4.17-2.74-7-4-3.81-1.7-7.29-2.55-10-3-1.16,3.2-2.81,4.99-4,6-5.69,4.8-14.74,3.34-23,2-2.09-.34-3.81-.72-5-1,1.16-.96,2.88-2.36,5-4,6.17-4.77,9.25-7.15,12-8,2.03-.63,6.82-1.58,14,2h4c-3.58-2.22-4.68-4.39-5-6-.21-1.04-.07-1.73,0-5,.04-2.12,.02-3.86,0-5,.8,.81,2.21,2.23,4,4,4.41,4.36,5.46,5.24,6,7,.36,1.16,.73,3.48-1,7l12,6c-2.03-1.91-5.97-6.24-6-12-.02-3.54,1.45-6.26,4-11,2.16-4.02,4.41-7.04,6-9,.4,1.36,1.06,3.47,2,6,2.95,7.95,4.84,9.77,5,13,.14,2.74-.95,6.79-7,12v3l2,2c-.67,1-1.33,2-2,3Z" fill="none" stroke="#000" stroke-miterlimit="10"/><path d="M93.09,145.03l-1-5c6.04-3.17,8.16-6.97,9-9,2.47-5.97,.46-12.6-3-24-.77-2.53-1.49-4.59-2-6-11.95,10.82-17.16,24.05-13,33,.82,1.77,2.28,3.94,5,6,.67,1,1.33,2,2,3l-18-11c2.74-8.08,1.67-11.96,0-14-1.42-1.74-3.94-2.95-7-7-.91-1.21-1.58-2.27-2-3-.32,1.63-.73,4.04-1,7-.36,4.01-.54,6.01,0,8,.35,1.3,1.63,4.94,7,8-2.67-.33-5.33-.67-8-1-11.02-6.29-17.27-5.84-21-4-3.3,1.63-5.56,4.8-13,9-2.45,1.38-4.56,2.37-6,3,1.59,.52,4.01,1.27,7,2,10.33,2.53,18.61,4.56,26,1,1.99-.96,5.08-2.88,8-7,.33-.67,.67-1.33,1-2,3.65,1.16,8.19,3.01,13,6,3.2,1.99,5.86,4.08,8,6-3.7-.38-6.3,.3-8,1-2.39,.98-3.82,2.33-9,5-.84,.43-1.54,.78-2,1,1.21,.5,2.93,1.2,5,2,4.16,1.61,5.16,1.85,6,2,1.36,.24,3.4,.43,6,0,1.48-1.61,3.14-3.29,5-5,2.07-1.9,4.09-3.56,6-5Z" fill="none" stroke="#000" stroke-miterlimit="10"/><path d="M151.09,107.03c-.32-.35-.66-.76-1-1.25-.44-.63-.76-1.23-1-1.75l-8-1c-.87,1.86-2.39,4.52-5,7-7.45,7.07-20.04,9.07-29,5-5.34-2.42-5.96-5.44-13-8-4.44-1.62-8.41-1.96-11-2,11.33-14.16,27.9-21.31,43-18,8.53,1.87,14.55,6.64,18,10-4-7.67-8-15.33-12-23-2.98,1.59-5.45,1.94-7,2-9.27,.37-16.81-8.14-22-14-1.81-2.04-3.16-3.83-4-5,1.21-.04,2.93-.06,5,0,7.76,.23,13.21,.39,18,3,2.07,1.13,5.99,3.79,9,10-.67-4.33-1.33-8.67-2-13-2-2.8-3.24-5.52-4-8-6.87-22.46,18.88-46.1,21-48,.17,1.62,.47,4.06,1,7,1.42,7.86,3.39,13.03,4,15,4.49,14.58-9.05,37.93-16,37-1.03-.14-2.5-.88-4-4,.8,4.52,2.05,9.59,4,15,4.69,13,11.52,22.62,17,29-1.97-2.36-5.74-7.67-5-14,.5-4.29,2.9-7.5,7-13,2.28-3.06,4.43-5.41,6-7,.27,1.45,.63,3.51,1,6,1.31,8.85,1.96,13.27,1,17-.6,2.34-2.29,6.69-8,11-.14,.53-.36,1.66,0,3,.25,.93,.69,1.6,1,2-1.33,.67-2.67,1.33-4,2Z" fill="none" stroke="#000" stroke-miterlimit="10"/><path d="M475.44,196.22c1.03-.23,2.06-.45,3.09-.68,.44,1.69,1.19,2.67,1.67,3.19,2.77,2.96,7.71,2.58,11.83,2.25,1.8-.14,3.23-.4,4.08-.57-.88-.46-2.24-1.24-3.77-2.41-2.68-2.05-3.37-3.37-5.55-4.61-1.01-.57-2.59-1.26-4.87-1.52,1.96-1.11,4.43-2.28,7.38-3.24,3.97-1.29,7.52-1.77,10.26-1.93,.81,3.31,2.27,5.26,3.35,6.39,5.16,5.37,14.31,4.86,22.66,4.4,2.12-.12,3.87-.31,5.08-.47-1.05-1.08-2.62-2.65-4.55-4.5-5.63-5.39-8.45-8.08-11.09-9.21-1.96-.84-6.62-2.28-14.13,.52l-3.98-.42c3.8-1.84,5.11-3.88,5.6-5.44,.32-1.02,.25-1.72,.52-4.97,.18-2.11,.38-3.84,.52-4.97-.88,.72-2.43,1.99-4.4,3.56-4.84,3.87-5.98,4.64-6.7,6.33-.48,1.12-1.09,3.39,.26,7.07l-12.56,4.71c2.22-1.69,6.59-5.58,7.23-11.3,.39-3.52-.78-6.38-2.82-11.36-1.73-4.22-3.64-7.46-5.02-9.58-.54,1.31-1.42,3.34-2.62,5.76-3.76,7.59-5.83,9.2-6.34,12.4-.43,2.71,.23,6.85,5.7,12.67l-.31,2.98-2.2,1.78c.56,1.06,1.12,2.13,1.67,3.19Z" fill="none" stroke="#000" stroke-miterlimit="10"/><path d="M441.95,153.57l1.52-4.87c-5.67-3.78-7.38-7.79-8.01-9.89-1.83-6.19,.87-12.58,5.5-23.55,1.03-2.43,1.96-4.41,2.62-5.76,10.75,12.01,14.54,25.72,9.47,34.18-1,1.68-2.68,3.68-5.6,5.44-.77,.92-1.54,1.85-2.3,2.77l19.05-9.05c-1.88-8.32-.4-12.07,1.47-13.92,1.6-1.58,4.23-2.52,7.7-6.23,1.04-1.11,1.81-2.1,2.3-2.77,.15,1.65,.3,4.1,.26,7.07-.06,4.02-.09,6.03-.84,7.96-.49,1.25-2.14,4.74-7.8,7.22,2.69-.05,5.37-.1,8.06-.16,11.62-5.1,17.79-4,21.3-1.77,3.11,1.96,5.02,5.36,11.98,10.31,2.29,1.63,4.29,2.84,5.65,3.61-1.64,.35-4.12,.84-7.17,1.25-10.54,1.44-18.98,2.59-25.96-1.73-1.88-1.16-4.75-3.4-7.22-7.8-.26-.7-.52-1.4-.78-2.09-3.75,.78-8.46,2.13-13.56,4.6-3.39,1.65-6.25,3.44-8.59,5.13,3.72,.01,6.23,.96,7.85,1.83,2.27,1.22,3.55,2.72,8.43,5.92,.79,.52,1.45,.94,1.88,1.2-1.26,.37-3.04,.89-5.18,1.46-4.31,1.16-5.33,1.3-6.18,1.36-1.38,.1-3.43,.07-5.97-.63-1.3-1.76-2.78-3.6-4.45-5.5-1.86-2.11-3.7-3.97-5.44-5.6Z" fill="none" stroke="#000" stroke-miterlimit="10"/><path d="M384.25,112.69c.25-.22,.51-.47,.78-.76,.19-.2,.32-.36,.34-.38,.3-.35,1.77-1.55,5.71-4.53h7c-.07,1.17,0,3.07,1,5,1.04,2.01,2.63,3.16,4,4,11.93,7.28,26,6,26,6,3.54-.32,5.6-.98,7.12-1.62,3.37-1.43,4.51-3,6.88-4.38,2.3-1.34,6.02-2.67,12-2-2.76-4.27-9.92-14.01-23-19-4.59-1.75-13.46-5.13-24-2-8.34,2.48-13.54,7.78-15.83,10.46,5.61-7.82,11.22-15.64,16.83-23.46,1.4,.38,3.47,.84,6,1,2.48,.16,10.54,.67,17-4,.53-.38,.23-.21,8-8,1.68-1.69,3.07-3.08,4-4-1.92-.37-4.67-.8-8-1-6.6-.4-11.91-.71-17,2-1.88,1-5.21,3.2-8,8,.39-.86,.89-2.24,1-4,.13-2.12-.36-3.8-.71-4.75,3.92-2.28,6.25-4.91,7.71-7.25,7.75-12.44,1.3-33.71-16-53-.31,2.81-.98,5.48-2,8-1.38,3.4-2.61,4.57-4,8-1.31,3.25-1.69,5.89-2,8-.33,2.26-3.4,25.38,9,33,1.14,.7,2.91,1.57,5.4,2.05-.2,1.71-.59,4.14-1.4,6.95-1.33,4.56-3.29,8.47-7,14-6.65,9.93-13.66,17.28-14,17-.24-.19,3.86-3.33,5-9,1.28-6.35-1.7-12.35-4-17-1.76-3.56-3.65-6.25-5-8-1.2,2-2.81,5.04-4,9-1.52,5.03-3.7,12.28,0,18,.84,1.31,2.55,3.4,6,5,.16,2.46-.43,4.02-1,5-.5,.84-1.08,1.42-2.4,3.38-.53,.79-.94,1.45-1.2,1.88,1.26,.8,2.51,1.61,3.77,2.41Z" fill="none" stroke="#000" stroke-miterlimit="10"/></g><path d="M359.09,568.03c-2.51,1.13-5.28,2.33-8.3,3.56-2.55,1.04-5.28,2.09-8.19,3.15-.06,.02-.12,.04-.18,.07-22.11,7.53-45.42,12.07-69.33,13.22-27.83,1.33-54.88-2.02-80.41-9.28-.1-.02-.2-.05-.3-.09-6.17-1.88-11.62-3.82-16.29-5.63l-.77-1.55-2.23-4.45,9.05,4.22,5.95,2.78,4,1c.99-1.19,2-2.52,3-4,.04-.05,.07-.11,.1-.16,1.64-2.41,2.9-4.74,3.9-6.84,.87,.45,1.92,1.09,3,2,.82,.69,1.48,1.38,2,2h33c2-.77,4.71-1.6,8-2,3.18-.38,5.92-.25,8,0-1.47,.91-3.23,2.21-5,4-.01,.01-.03,.03-.03,.04-2.48,2.52-4.03,5.07-4.97,6.96,4.33,1,8.67,2,13,3l21-2c-.25-.58-1.71-4.1-.02-7.96,.01-.01,.01-.03,.02-.04,1.47-3.31,4.29-4.68,5-5-.07,.2-.91,2.49-.34,5.07,.21,.97,.62,1.98,1.34,2.93,1.77,2.33,4.32,2.88,5,3,5.11,.62,11.21,.84,18,0,2.11-.26,4.11-.6,6-1,1.77,.58,4.57,1.25,8,1,2-.15,3.69-.56,5-1,1.95-.05,4.74-.26,8-1,3.34-.76,5.8-1.78,8.07-2.77,3.08-1.35,5.8-2.65,9.93-3.23,1.97-.27,4.68-.44,8,0Z" fill="none" stroke="#000" stroke-miterlimit="10"/><path d="M483.09,588.53c0,10.22-99.17,18.5-221.5,18.5s-221.5-8.28-221.5-18.5c0-7.53,53.87-14.01,131.18-16.9,6.9,2.64,13.95,4.99,21.11,7.03,.1,.04,.2,.07,.3,.09,25.53,7.26,52.58,10.61,80.41,9.28,23.91-1.15,47.22-5.69,69.33-13.22,.06-.03,.12-.05,.18-.07,2.91-1.06,5.64-2.11,8.19-3.15,.17,.01,.33,.01,.49,.02,77.65,2.87,131.81,9.37,131.81,16.92Z" fill="none" stroke="#000" stroke-miterlimit="10"/></g></svg>