<?xml version="1.0" encoding="UTF-8"?><svg id="Layer_2" xmlns="http://www.w3.org/2000/svg" width="107.23" height="138.39" viewBox="0 0 107.23 138.39"><g id="Layer_2-2"><g><path d="M60.71,137.89h-8l1-43c-1.11,.09-3.42,.13-6-1-2.75-1.21-4.33-3.1-5-4l1-1c.69,.8,1.99,2.08,4,3,2.57,1.17,4.9,1.1,6,1v-14c-5.67-1.67-11.33-3.33-17-5h-14l1-1c1.37,.13,3.07,.19,5,0,1.97-.19,3.66-.59,5-1-2.01-1.15-5.18-3.31-8-7-3.31-4.32-4.51-8.63-5-11h2c1.09,2.86,4.75,11.31,14,17,7,4.31,13.78,4.92,17,5v-4h6v11c2.62-.25,7.94-1.13,13-5,9.27-7.09,9.93-18.26,10-20,.67,.33,1.33,.67,2,1,.08,2.4,.01,9.57-5,16-2.37,3.05-5.07,4.91-7,6,2.08,.56,4.43,.95,7,1,.34,0,.67,0,1,0l1,1c-.84,.39-1.84,.76-3,1-3.98,.84-7.35-.3-9-1-3.33,1.33-6.67,2.67-10,4l1,51Z" fill="none" stroke="#000" stroke-miterlimit="10"/><path d="M96.71,82.89c-1.2,1.49-.1,3.5-1,4-1.07,.6-2.62-2.23-5-2-2.01,.19-2.75,2.37-4,2-1-.29-.63-1.7-2-3-1.62-1.53-3.4-.79-4-2-.5-1.01,.68-1.65,1-4,.37-2.71-.89-3.98,0-5,.76-.87,1.82-.09,3-1,1.56-1.21,.76-3.4,2-4,1.07-.52,1.86,1.02,4,1,2.12-.02,3.08-1.55,4-1,.85,.5,.11,1.82,1,3,1.33,1.75,4.31,.61,5,2,.51,1.02-1.02,1.8-1,4,.02,2.16,1.5,2.92,1,4-.59,1.27-2.78,.48-4,2Z" fill="none" stroke="#000" stroke-miterlimit="10"/><path d="M20.62,74.62c-1.2,1.49-.1,3.5-1,4-1.07,.6-2.62-2.23-5-2-2.01,.19-2.75,2.37-4,2-1-.29-.63-1.7-2-3-1.62-1.53-3.4-.79-4-2-.5-1.01,.68-1.65,1-4,.37-2.71-.89-3.98,0-5,.76-.87,1.82-.09,3-1,1.56-1.21,.76-3.4,2-4,1.07-.52,1.86,1.02,4,1,2.12-.02,3.08-1.55,4-1,.85,.5,.11,1.82,1,3,1.33,1.75,4.31,.61,5,2,.51,1.02-1.02,1.8-1,4,.02,2.16,1.5,2.92,1,4-.59,1.27-2.78,.48-4,2Z" fill="none" stroke="#000" stroke-miterlimit="10"/><path d="M70.79,68.99c-1.03,1.52-3.7,.04-5.59,1.75-1.87,1.69-.86,4.51-2.13,4.97-1.51,.55-2.93-3.42-6.06-3.63-2.63-.17-4.04,2.5-5.59,1.75-1.23-.59-.46-2.32-1.96-4.29-1.77-2.33-4.23-1.74-4.76-3.43-.04-.12-.06-.23-.06-.34-.1-1.18,1.36-1.9,2.19-4.62,1.05-3.43-.32-5.35,1.04-6.47,1-.83,2.03-.05,3.38-.4,.22-.05,.46-.14,.71-.27,.81-.44,1.26-1.11,1.58-1.8,.57-1.26,.73-2.63,1.84-2.96,1.5-.44,2.2,1.71,4.97,2.13,.75,.11,1.4,.06,1.99-.05,.36-.07,.7-.17,1.01-.27,1.03-.31,1.79-.64,2.39-.14,.99,.83-.25,2.38,.66,4.09,1.36,2.55,5.45,1.69,6.06,3.63,.38,1.25-1.2,1.94-1.89,4-.11,.29-.19,.61-.24,.97-.43,2.79,1.33,4.09,.46,5.38Z" fill="none" stroke="#000" stroke-miterlimit="10"/><path d="M75.55,44.67c-.23,.17-.45,.27-.66,.33,.24-.13,.46-.24,.66-.33Z" fill="none" stroke="#000" stroke-miterlimit="10"/><path d="M82.58,57.69c-.62,1.17-2.75,.44-3.95,1.93-1.2,1.5-.1,3.5-1,4-1.07,.6-2.62-2.22-5-2-.88,.09-1.52,.55-2.06,1.02,.69-2.06,2.27-2.75,1.89-4-.61-1.94-4.7-1.08-6.06-3.63-.91-1.71,.33-3.26-.66-4.09-.6-.5-1.36-.17-2.39,.14-.31,.1-.65,.2-1.01,.27,0-.84,.09-1.77,.74-2.58,1.35-1.68,3.67-1.04,4.61-2.07h0c.11-.11,.19-.23,.25-.36,.16-.34,.15-.64,.06-.96h0c.13-.33,.31-.59,.63-.74,.58-.27,1.07,.05,1.74,.4,.01,0,.02,.01,.03,.02,.57,.28,1.26,.59,2.23,.58-.48,.55-.34,1.17-.16,2.05,.15,.75,.33,1.7,.16,2.95-.33,2.35-1.51,3-1,4,.6,1.21,2.38,.47,4,2,1.37,1.31,1,2.71,2,3,1.25,.37,1.99-1.81,4-2,.33-.03,.65,0,.95,.07Z" fill="none" stroke="#000" stroke-miterlimit="10"/><path d="M67.94,46.32c-.06,.13-.14,.25-.25,.35,.1-.47,.17-.94,.31-1.31,.09,.32,.1,.62-.06,.96Z" fill="none" stroke="#000" stroke-miterlimit="10"/><path d="M105.63,55.62c.02,2.16,1.5,2.93,1,4-.59,1.27-2.78,.48-4,2-1.2,1.5-.1,3.5-1,4-1.07,.6-2.62-2.22-5-2-2.01,.19-2.75,2.37-4,2-1-.29-.63-1.69-2-3-1.62-1.53-3.4-.79-4-2-.17-.34-.15-.64-.04-.99,.01,0,.03,0,.04-.01,.3-.17,.38-.51,.4-.95,.23-.52,.48-1.16,.6-2.05,.05-.39,.07-.74,.07-1.07-.02-1.99-.83-3.06-.07-3.93s1.82-.09,3-1c.04-.03,.07-.06,.1-.09-.06-.27-.1-.58-.1-.91-.01-.86,.22-1.5,.47-2.02,.19-.06,.4-.1,.62-.12,.08-.01,.16-.01,.24-.01,.13-.37,.31-.68,.67-.85,1.07-.51,1.86,1.03,4,1,.7-.01,1.27-.18,1.76-.39,.98-.42,1.62-.98,2.24-.61,.84,.5,.1,1.82,1,3,1.33,1.76,4.31,.61,5,2,.51,1.02-1.02,1.8-1,4Z" fill="none" stroke="#000" stroke-miterlimit="10"/><path d="M87.03,58.67c-.02,.44-.1,.78-.4,.95-.01,.01-.03,.01-.04,.01,.1-.28,.27-.58,.44-.96Z" fill="none" stroke="#000" stroke-miterlimit="10"/><path d="M87.03,58.67c-.02,.44-.1,.78-.4,.95-.01,.01-.03,.01-.04,.01,.1-.28,.27-.58,.44-.96Z" fill="none" stroke="#000" stroke-miterlimit="10"/><path d="M51.6,53.6c-.09,.21-.21,.43-.35,.68-1.35,.35-2.38-.43-3.38,.4-1.36,1.12,.01,3.04-1.04,6.47-.83,2.72-2.29,3.44-2.19,4.62-.82-.6-1.81-1.26-3.01-1.15-2.01,.19-2.75,2.37-4,2-1-.29-.63-1.69-2-3-1.62-1.53-3.4-.79-4-2-.51-1,.67-1.65,1-4,.37-2.7-.89-3.98,0-5,.76-.87,1.82-.09,3-1,.14-.11,.26-.22,.35-.35,.01,0,.02-.02,.02-.02,1-.7,2.03-2.12,3.85-2.29,3.14-.3,5.18,3.42,6.59,2.64,.25-.14,.39-.38,.46-.68,.76,.7,1.86,.77,2.83,.88h.01c.85,.09,1.59,.22,1.89,.82,.17,.33,.12,.64-.03,.98Z" fill="none" stroke="#000" stroke-miterlimit="10"/><path d="M19.29,51.44c-.87,.19-1.94,.28-2.66,1.18-1.2,1.5-.1,3.5-1,4-1.07,.6-2.62-2.22-5-2-2.01,.19-2.75,2.37-4,2-1-.29-.63-1.69-2-3-1.62-1.53-3.4-.79-4-2-.51-1,.67-1.65,1-4,.37-2.7-.89-3.98,0-5,.76-.87,1.82-.09,3-1,1.56-1.21,.76-3.4,2-4,1.07-.51,1.86,1.03,4,1,.61-.01,1.12-.14,1.57-.31,.71,1.08,.61,2.07,1.43,2.31,.59,.18,1.07-.22,1.63-.72,.02,.08,.05,.16,.09,.24-.24,.95,.59,2.22,.28,4.48-.33,2.35-1.51,3-1,4,.6,1.21,2.38,.47,4,2,.28,.27,.49,.55,.66,.82Z" fill="none" stroke="#000" stroke-miterlimit="10"/><path d="M33.63,43.62c.02,2.16,1.5,2.93,1,4-.31,.68-1.08,.77-1.92,.94-.73,.15-1.51,.35-2.08,1.06-1.2,1.5-.1,3.5-1,4-1.07,.6-2.62-2.22-5-2-2.01,.19-2.75,2.37-4,2-.79-.23-.72-1.15-1.34-2.18-.17-.27-.38-.55-.66-.82-1.62-1.53-3.4-.79-4-2-.51-1,.67-1.65,1-4,.31-2.26-.52-3.53-.28-4.48,.05-.18,.14-.35,.28-.52,.74-.85,1.77-.13,2.91-.94,.03-.02,.06-.04,.09-.06,1.56-1.21,.76-3.4,2-4,1.07-.51,1.86,1.03,4,1,1.36-.02,2.24-.66,2.95-.96v.04s.03-.04,.04-.06c.37-.15,.69-.21,1.01-.02,.84,.5,.1,1.82,1,3,1.33,1.76,4.31,.61,5,2,.51,1.02-1.02,1.8-1,4Z" fill="none" stroke="#000" stroke-miterlimit="10"/><path d="M27.62,34.64s-.02,.04-.04,.06v-.04s.03,0,.04-.02Z" fill="none" stroke="#000" stroke-miterlimit="10"/><path d="M53.03,43.69c-.78,1.67-3.66,.62-5.27,2.63-.66,.83-.79,1.78-.8,2.65-.02,.75,.05,1.45-.06,1.95-.07,.3-.21,.54-.46,.68-1.41,.78-3.45-2.94-6.59-2.64-1.82,.17-2.85,1.59-3.85,2.29,0,0,0,.02-.02,.02-.45,.31-.89,.48-1.4,.33-1.09-.32-.95-1.63-1.87-3.04,.84-.17,1.61-.26,1.92-.94,.5-1.07-.98-1.84-1-4-.02-2.2,1.51-2.98,1-4-.69-1.39-3.67-.24-5-2-.9-1.18-.16-2.5-1-3-.32-.19-.64-.13-1.01,.02,0-.01,.01-.01,.01-.02,.14-.3,.12-.59,.02-.88h0c-.25-.75-1-1.58-1.02-3.12,0-.51,.08-.95,.19-1.33h.01c1.38,.23,2.27-2.16,4.54-2.38,.89-.08,1.67,.2,2.38,.6,1.51,.84,2.62,2.23,3.48,1.75,.05-.03,.09-.06,.13-.1,0,.37-.03,.78-.09,1.2-.51,3.69-2.36,4.7-1.57,6.27,.94,1.89,3.73,.73,6.27,3.14,1.84,1.74,1.68,3.6,2.57,4.38,.15,.15,.33,.25,.56,.32,1.97,.58,3.12-2.84,6.27-3.13,.41-.04,.8-.02,1.17,.05,.45,.89,.85,1.53,.49,2.3Z" fill="none" stroke="#000" stroke-miterlimit="10"/><path d="M27.63,34.62s-.01,.01-.01,.02c0,.02-.02,.04-.04,.06v-.04c-.04-.34-.03-.64,.07-.92,.1,.29,.12,.58-.02,.88Z" fill="none" stroke="#000" stroke-miterlimit="10"/><path d="M37.36,29.16c.04-.7-.01-1.32-.08-1.89,.13,.06,.27,.12,.41,.18,.01,.76,.04,1.4-.33,1.71Z" fill="none" stroke="#000" stroke-miterlimit="10"/><path d="M67.96,37.69c-.09-.45-.15-.81-.04-1.12,0,.01,0,.02,.02,.04,.18,.37,.15,.71,.02,1.08Z" fill="none" stroke="#000" stroke-miterlimit="10"/><path d="M67.94,46.32c-.06,.13-.14,.25-.25,.35,.1-.47,.17-.94,.31-1.31,.09,.32,.1,.62-.06,.96Z" fill="none" stroke="#000" stroke-miterlimit="10"/><path d="M26.63,30.62c.02,1.54,.77,2.37,1.02,3.11h0c-.1,.29-.11,.59-.07,.93-.71,.3-1.59,.94-2.95,.96-2.14,.03-2.93-1.51-4-1-1.24,.6-.44,2.79-2,4-.03,.02-.06,.04-.09,.06-.29-.06-.59-.09-.91-.06-1.05,.1-1.76,.75-2.37,1.28-.56,.5-1.04,.9-1.63,.72-.82-.24-.72-1.23-1.43-2.31-.15-.23-.33-.46-.57-.69-1.62-1.53-3.4-.79-4-2-.51-1,.67-1.65,1-4,.37-2.7-.89-3.98,0-5,.76-.87,1.82-.09,3-1,1.56-1.21,.76-3.4,2-4,1.07-.51,1.86,1.03,4,1,.84-.01,1.5-.26,2.04-.51h0c.83-.4,1.4-.82,1.96-.49,.84,.5,.1,1.82,1,3,.03,.05,.07,.09,.12,.13,.35,.42,.83,.66,1.35,.79h.01c1.39,.39,3.03,.09,3.52,1.08,.39,.78-.42,1.42-.8,2.67h-.01c-.11,.38-.19,.82-.19,1.33Z" fill="none" stroke="#000" stroke-miterlimit="10"/><path d="M27.63,34.62s-.01,.01-.01,.02c0,.02-.02,.04-.04,.06v-.04c-.04-.34-.03-.64,.07-.92,.1,.29,.12,.58-.02,.88Z" fill="none" stroke="#000" stroke-miterlimit="10"/><path d="M42.31,19.46c.11,.29,.24,.55,.36,.79-.19,.25-.42,.49-.7,.71-1.85,1.42-3.51,.21-4.7,1.57-1.01,1.14-.27,2.5,.01,4.74,.07,.57,.12,1.19,.08,1.89-.04,.04-.08,.07-.13,.1-.86,.48-1.97-.91-3.48-1.75-.71-.4-1.49-.68-2.38-.6-2.27,.22-3.16,2.61-4.54,2.38,.38-1.25,1.19-1.89,.8-2.67-.49-.99-2.13-.69-3.52-1.07h-.01c-.45-.39-.9-.63-1.35-.8-.05-.04-.09-.08-.12-.13-.9-1.18-.16-2.5-1-3-.56-.33-1.13,.09-1.96,.48,.3-.75,.92-1.68,1.15-3.39,.44-3.17-1.04-4.67,0-5.86,.89-1.02,2.14-.1,3.52-1.17,1.83-1.42,.88-3.99,2.34-4.69,1.26-.6,2.18,1.2,4.69,1.17,2.48-.03,3.6-1.81,4.69-1.17,.99,.59,.12,2.14,1.17,3.52,.11,.14,.23,.27,.35,.37,1.68,1.51,4.76,.45,5.51,1.97,.59,1.2-1.2,2.11-1.17,4.69,0,.77,.17,1.39,.39,1.92Z" fill="none" stroke="#000" stroke-miterlimit="10"/><path d="M37.36,29.16c.04-.7-.01-1.32-.08-1.89,.13,.06,.27,.12,.41,.18,.01,.76,.04,1.4-.33,1.71Z" fill="none" stroke="#000" stroke-miterlimit="10"/><path d="M56.63,13.62c-.09,.18-.2,.32-.35,.43-.85,.66-2.61,.27-3.65,1.57-.15,.19-.26,.38-.34,.57-.29,.04-.6,.07-.92,.07-3.35,.04-4.59-2.38-6.27-1.57-1.55,.75-1.06,3.09-2.04,4.96-.13,.02-.28,0-.43-.03-.12-.04-.23-.09-.32-.16-.22-.53-.38-1.15-.39-1.92-.03-2.58,1.76-3.49,1.17-4.69-.75-1.52-3.83-.46-5.51-1.97,.02-.08,.04-.17,.05-.26,.37-2.7-.89-3.98,0-5,.76-.87,1.82-.09,3-1,1.56-1.21,.76-3.4,2-4,1.07-.51,1.86,1.03,4,1,2.11-.02,3.07-1.55,4-1,.84,.5,.1,1.82,1,3,1.33,1.76,4.31,.61,5,2,.51,1.02-1.02,1.8-1,4,.02,1.49,.72,2.32,.99,3.04,.13,.32,.17,.63,.01,.96Z" fill="none" stroke="#000" stroke-miterlimit="10"/><path d="M75,13.36c.41,.96,.97,1.54,.63,2.26-.32,.68-1.1,.77-1.94,.95-.51,.1-1.04,.23-1.51,.55-.59,.04-1.12,.01-1.55,.5-.4,.45-.37,.96-.25,1.62-.48,.2-1.05,.37-1.75,.38-2.14,.03-2.93-1.51-4-1-.65,.31-.74,1.06-.9,1.88-.26,.21-.49,.43-.72,.61-.75-.08-1.51-.22-2.2-.5-.21-.56-.45-1.29-1.18-1.99-.36-.34-.73-.57-1.09-.73-.29-1.36,.07-2.62-.9-3.2-.52-.31-1.04-.2-1.65,.07,.09-.21,.19-.44,.29-.71,.15-.11,.26-.25,.35-.43,.16-.33,.12-.64-.01-.96,.01,0,.01-.03,.01-.04,.37-2.7-.89-3.98,0-5,.76-.87,1.82-.09,3-1,1.56-1.21,.76-3.4,2-4,1.07-.51,1.86,1.03,4,1,2.11-.02,3.07-1.55,4-1,.84,.5,.1,1.82,1,3,1.33,1.76,4.31,.61,5,2,.51,1.02-1.02,1.8-1,4,.01,.71,.17,1.27,.37,1.74Z" fill="none" stroke="#000" stroke-miterlimit="10"/><path d="M56.63,13.62c-.09,.18-.2,.32-.35,.43,.14-.38,.26-.84,.34-1.39,.13,.32,.17,.63,.01,.96Z" fill="none" stroke="#000" stroke-miterlimit="10"/><path d="M37.36,29.16c.04-.7-.01-1.32-.08-1.89,.13,.06,.27,.12,.41,.18,.01,.76,.04,1.4-.33,1.71Z" fill="none" stroke="#000" stroke-miterlimit="10"/><path d="M85.03,30.62c-.01,.47-.09,.83-.4,1-.2,.11-.41,.11-.64,.02,.1-.07,.21-.14,.32-.22,.31-.24,.54-.51,.72-.8Z" fill="none" stroke="#000" stroke-miterlimit="10"/><path d="M88.01,26.5c-.64,.12-1.34,.25-1.93,.69,.15-.31,.37-.56,.7-.72,.42-.21,.81-.15,1.23,.03Z" fill="none" stroke="#000" stroke-miterlimit="10"/><path d="M102.85,37.6c.02,2.66,1.85,3.61,1.23,4.94-.73,1.57-3.43,.59-4.94,2.47-.56,.7-.71,1.48-.75,2.22-.49,.21-1.06,.38-1.76,.39-2.14,.03-2.93-1.51-4-1-.36,.17-.54,.48-.67,.85-.08,0-.16,0-.24,.01-.22,.02-.43,.06-.62,.12,.39-.82,.84-1.36,.53-1.98-.69-1.39-3.67-.24-5-2-.9-1.18-.16-2.5-1-3-.64-.38-1.29,.23-2.32,.65-.23-.46-.47-1.02-.48-1.8-.02-1.8,1.23-2.43,.82-3.27-.45-.89-2.04-.5-3.23-.99-.23-1.1-.42-1.88,.18-2.56,.87-.99,2.06-.24,3.39-1.01,.1-.07,.21-.14,.32-.22,.31-.24,.54-.51,.72-.8,.71-1.13,.62-2.53,1.05-3.43,.15-.31,.37-.56,.7-.72,.42-.21,.81-.15,1.23,.03,.89,.36,1.91,1.23,3.71,1.21,2.62-.03,3.8-1.92,4.95-1.24,1.04,.62,.13,2.25,1.23,3.71,1.64,2.17,5.33,.75,6.18,2.47,.63,1.26-1.26,2.23-1.23,4.95Z" fill="none" stroke="#000" stroke-miterlimit="10"/><path d="M82.83,39.47c.01,.78,.25,1.34,.48,1.8-.47,.19-1.02,.34-1.68,.35-.7,.01-1.26-.15-1.72-.35-.97-.41-1.56-.99-2.28-.65-1.24,.6-.44,2.79-2,4-.02,.02-.04,.03-.06,.04t-.02,.01c-.2,.09-.42,.2-.66,.33t-.02,.01c-.87,.26-1.65-.07-2.24,.61-.97,.01-1.66-.3-2.23-.58-.01,0-.02-.02-.03-.02-1.26-1.03-2.59-.53-3.06-1.47-.41-.82,.55-1.34,.82-3.26,.15-1.12-.04-1.94-.17-2.58v-.02c.13-.37,.16-.71-.02-1.08-.01-.02-.02-.03-.02-.04h0c.04-.14,.11-.26,.21-.37,.44-.5,1-.33,1.63-.45h.01c.26-.05,.53-.16,.81-.37,1.27-.98,.62-2.77,1.63-3.26,.88-.42,1.52,.83,3.27,.81h.03c.74-.02,1.31-.26,1.78-.49h.01c.39-.09,.75-.2,1.01-.41,.15-.02,.3,0,.44,.09,.69,.41,.08,1.48,.81,2.45,.24,.31,.53,.51,.86,.64,1.19,.49,2.78,.1,3.23,.99,.41,.84-.84,1.47-.82,3.27Z" fill="none" stroke="#000" stroke-miterlimit="10"/><path d="M67.96,37.69c-.09-.45-.15-.81-.04-1.12,0,.01,0,.02,.02,.04,.18,.37,.15,.71,.02,1.08Z" fill="none" stroke="#000" stroke-miterlimit="10"/><path d="M75.55,44.67c-.23,.17-.45,.27-.66,.33,.24-.13,.46-.24,.66-.33Z" fill="none" stroke="#000" stroke-miterlimit="10"/><path d="M78.31,32.03c-.26,.21-.62,.32-1.01,.41,.39-.2,.72-.38,1.01-.41Z" fill="none" stroke="#000" stroke-miterlimit="10"/><path d="M67.05,35.07c-.13,.28-.32,.5-.54,.67-.66,.51-1.66,.62-2.71,.84-1.07,.23-2.19,.59-3.02,1.62-1.88,2.34-.15,5.48-1.57,6.27-1.5,.83-3.59-2.59-6.67-3.08-.37-.07-.76-.09-1.17-.05-3.15,.29-4.3,3.71-6.27,3.13-.23-.07-.41-.17-.56-.32-.89-.78-.73-2.64-2.57-4.38-2.54-2.41-5.33-1.25-6.27-3.14-.79-1.57,1.06-2.58,1.57-6.27,.06-.42,.09-.83,.09-1.2,.37-.31,.34-.95,.33-1.71-.14-.06-.28-.12-.41-.18-.28-2.24-1.02-3.6-.01-4.74,1.19-1.36,2.85-.15,4.7-1.57,.28-.22,.51-.46,.7-.71,.15-.19,.28-.39,.39-.6,.98-1.87,.49-4.21,2.04-4.96,1.68-.81,2.92,1.61,6.27,1.57,.32,0,.63-.03,.92-.07,.08-.19,.19-.38,.34-.57,1.04-1.3,2.8-.91,3.65-1.57-.1,.27-.2,.5-.29,.71,.61-.27,1.13-.38,1.65-.07,.97,.58,.61,1.84,.9,3.2,.36,.16,.73,.39,1.09,.73,.73,.7,.97,1.43,1.18,1.99,.69,.28,1.45,.42,2.2,.5,.19,.03,.38,.05,.56,.07,1.54,.16,2.95,.28,3.48,1.35,.79,1.6-1.6,2.82-1.57,6.27,.03,3.38,2.36,4.58,1.57,6.27Z" fill="none" stroke="#000" stroke-miterlimit="10"/><path d="M78.63,31.62c-.08,.17-.19,.3-.32,.41-.29,.03-.62,.21-1.01,.41h-.01c-.56,.12-1.2,.2-1.78,.49h-.03c-1.75,.02-2.39-1.23-3.27-.81-1.01,.49-.36,2.28-1.63,3.26-.28,.21-.55,.32-.81,.37h-.01c-.63,.12-1.19-.05-1.63,.45-.1,.11-.17,.23-.21,.36h0c-.11,.32-.05,.68,.04,1.13v.02c.13,.64,.32,1.46,.17,2.58-.27,1.92-1.23,2.44-.82,3.26,.47,.94,1.8,.44,3.06,1.47-.67-.35-1.16-.67-1.74-.4-.32,.15-.5,.41-.63,.73h0c-.14,.38-.21,.85-.31,1.32h0c-.94,1.04-3.26,.4-4.61,2.08-.65,.81-.74,1.74-.74,2.58-.59,.11-1.24,.16-1.99,.05-2.77-.42-3.47-2.57-4.97-2.13-1.11,.33-1.27,1.7-1.84,2.96-.73,.58-1.3,1.23-1.94,1.39,.15-.34,.2-.65,.03-.98-.3-.6-1.04-.73-1.89-.82h-.01c-.97-.11-2.07-.18-2.83-.88,.11-.5,.04-1.2,.06-1.95,.01-.87,.14-1.82,.8-2.65,1.61-2.01,4.49-.96,5.27-2.63,.36-.77-.04-1.41-.49-2.3,3.08,.49,5.17,3.91,6.67,3.08,1.42-.79-.31-3.93,1.57-6.27,.83-1.03,1.95-1.39,3.02-1.62,1.05-.22,2.05-.33,2.71-.84,.22-.17,.41-.39,.54-.67,.79-1.69-1.54-2.89-1.57-6.27-.03-3.45,2.36-4.67,1.57-6.27-.53-1.07-1.94-1.19-3.48-1.35,.06-.23,.11-.45,.16-.68,.16-.82,.25-1.57,.9-1.88,1.07-.51,1.86,1.03,4,1,.7-.01,1.27-.18,1.75-.38,.12,.61,.31,1.36,.32,2.33,0,.32-.02,.67-.07,1.05-.33,2.35-1.51,3-1,4,.6,1.21,2.38,.47,4,2,1.37,1.31,1,2.71,2,3,.94,.28,1.59-.88,2.71-1.56,.3,.58,.54,1.04,.29,1.56Z" fill="none" stroke="#000" stroke-miterlimit="10"/><path d="M51.6,53.6c-.21,.07-.43,.07-.66,0-.73-.21-.86-.92-1.2-1.8,.85,.09,1.59,.22,1.89,.82,.17,.33,.12,.64-.03,.98Z" fill="none" stroke="#000" stroke-miterlimit="10"/><path d="M78.31,32.03c-.26,.21-.62,.32-1.01,.41,.39-.2,.72-.38,1.01-.41Z" fill="none" stroke="#000" stroke-miterlimit="10"/><path d="M88.63,21.62c.02,2.16,1.5,2.93,1,4-.28,.59-.91,.73-1.62,.88-.42-.18-.81-.24-1.23-.03-.33,.16-.55,.41-.7,.72-.16,.12-.31,.26-.45,.43-.78,.97-.59,2.16-.6,3-.18,.29-.41,.56-.72,.8-.11,.08-.22,.15-.32,.22-1.03-.36-2.42-2.2-4.36-2.02-.5,.05-.92,.22-1.29,.44-1.12,.68-1.77,1.84-2.71,1.56-1-.29-.63-1.69-2-3-1.62-1.53-3.4-.79-4-2-.51-1,.67-1.65,1-4,.05-.38,.07-.73,.07-1.05-.01-.97-.2-1.72-.32-2.33-.12-.66-.15-1.17,.25-1.62,.43-.49,.96-.46,1.55-.5,.45-.03,.94-.11,1.45-.5,.02-.02,.04-.03,.06-.05,.84-.18,1.62-.27,1.94-.95,.34-.72-.22-1.3-.63-2.26,.13-.32,.31-.59,.63-.74,1.07-.51,1.86,1.03,4,1,2.11-.02,3.07-1.55,4-1,.84,.5,.1,1.82,1,3,1.33,1.76,4.31,.61,5,2,.51,1.02-1.02,1.8-1,4Z" fill="none" stroke="#000" stroke-miterlimit="10"/><path d="M43.08,89.29c-.91,1.14-.07,2.67-.76,3.05-.82,.45-2-1.7-3.81-1.53-1.53,.14-2.09,1.81-3.05,1.53-.76-.22-.48-1.29-1.53-2.29-1.23-1.17-2.59-.61-3.05-1.53-.38-.77,.52-1.26,.76-3.05,.29-2.06-.68-3.04,0-3.81,.58-.66,1.39-.07,2.29-.76,1.19-.92,.58-2.59,1.53-3.05,.82-.39,1.42,.78,3.05,.76,1.61-.02,2.35-1.18,3.05-.76,.65,.38,.08,1.39,.76,2.29,1.01,1.34,3.29,.47,3.81,1.53,.39,.78-.78,1.38-.76,3.05,.01,1.65,1.15,2.23,.76,3.05-.45,.97-2.12,.36-3.05,1.53Z" fill="none" stroke="#000" stroke-miterlimit="10"/></g></g></svg>