<?xml version="1.0" encoding="UTF-8"?><svg id="Layer_2" xmlns="http://www.w3.org/2000/svg" width="95.5" height="194.56" viewBox="0 0 95.5 194.56"><g id="Layer_2-2"><g><path d="M51.25,194.06h-9v-42l-7-2,1-3,6,2,1-30-6-1,1-3,5,1,1-21c-1.95-.16-7.27-.85-12-5-6.92-6.07-7.01-14.65-7-16h2c-.01,1.38,.09,7.67,5,13,4.68,5.08,10.55,5.85,12,6,.33-14.67,.67-29.33,1-44-.63,.04-1.3,.04-2,0-4.49-.28-7.94-2.4-10-4-.8,.45-6.86,3.75-13,1-2.5-1.12-4.11-2.84-5-4,.48-.51,1.23-1.13,2-1,.81,.14,1.09,1.01,2,2,0,0,.94,1.02,3,2,3.41,1.62,8.43-.72,9-1-1.24-1.62-2.77-3.95-4-7-1.26-3.13-1.78-5.94-2-8l2-1c.26,1.25,.58,2.59,1,4,.32,1.06,.65,2.06,1,3,1.33-.33,3.09-.92,5-2,1.75-.99,3.07-2.1,4-3l2,1c-.99,1.37-2.9,3.58-6,5-1.08,.5-2.1,.81-3,1,.5,1.37,1.38,3.23,3,5,4.03,4.41,9.51,4.91,11,5V18.06h2v9c.62,.08,1.3,.09,2,0,4.02-.52,6.39-4.04,7-5l2,1c-.81,1.2-2.69,3.6-6,5-1.52,.65-2.92,.9-4,1v20c2.09,.41,6,.84,10-1,6.42-2.94,10.39-10.47,10-19l2-1c.22,2.58,.34,8.3-3,14-1.26,2.16-2.72,3.8-4,5,1.43,.6,5.24,1.96,10,1,4.11-.83,6.82-2.95,8-4,.33,.33,.67,.67,1,1-.65,.8-1.32,1.45-2,2-6.67,5.39-16.54,2.73-19,2-1.02,.84-3.04,2.29-6,3-3.12,.75-5.7,.31-7,0v46c2.39-.47,7.42-1.8,12-6,7.07-6.48,7.87-14.98,8-17h2v6c1.02-.08,2.44-.32,4-1,2.67-1.17,4.26-3.01,5-4h1c-.57,1.18-1.76,3.22-4,5-2.79,2.22-5.66,2.81-7,3-.87,2.3-3.27,7.72-9,12-4.78,3.57-9.57,4.63-12,5,.33,10.33,.67,20.67,1,31l5-2v2l-5,2,2,60Z" fill="none" stroke="#000" stroke-miterlimit="10"/><path d="M45.25,59.06H14.25c-1.35-.49-8.49-3.22-12-11-4.24-9.4,.48-18.08,1-19-1.39-5.32,1.04-10.41,5-12,3.77-1.52,7.51,.7,8,1,.27-6.98,4.11-13.22,10-16,7.63-3.6,17.55-.86,23,7,.56-.34,8.52-4.95,16-1,3.36,1.77,5.17,4.51,6,6,2.56-2.27,6.45-2.27,9,0,2.57,2.28,3.01,6.19,1,9,1.92,.53,8.76,2.68,12,9,4.12,8.02,.87,19.73-9,27H48.25" fill="none" stroke="#000" stroke-miterlimit="10"/><path d="M29.25,80.06h8c2.4-1.92,3.22-5.22,2-8-1.18-2.71-4.04-4.34-7-4-1.01-2.42-3.38-4-6-4s-4.99,1.58-6,4c-2.53-.09-4.89,1.05-6,3-1.56,2.76-.47,6.91,3,9h8" fill="none" stroke="#000" stroke-miterlimit="10"/><path d="M65.25,84.06h-9c-3.95-1.84-5.99-6.15-5-10,1.15-4.43,6.09-7.36,11-6,.4-4.19,4.05-7.26,8-7,3.6,.24,6.65,3.19,7,7,4.83-.23,9,2.84,10,7,.76,3.18-.42,6.64-3,9h-15" fill="none" stroke="#000" stroke-miterlimit="10"/></g></g></svg>