<?xml version="1.0" encoding="UTF-8"?><svg id="Layer_2" xmlns="http://www.w3.org/2000/svg" width="175.33" height="193.35" viewBox="0 0 175.33 193.35"><g id="Layer_2-2"><g><path d="M101.71,192.85h-27l5-59c-3.22-.33-8.95-1.34-15-5-4.96-3-8.17-6.59-10-9-2.4-.44-6.13-1.45-10-4-6.14-4.05-8.94-9.55-10-12,1.33,.33,2.67,.67,4,1,1.68,1.91,3.67,3.95,6,6,1.72,1.52,3.4,2.84,5,4l-3-9c2.33,.33,4.67,.67,7,1,.5,2.05,2.59,9.6,10,15,6.74,4.92,13.75,5.05,16,5,.33-3,.67-6,1-9-1.38,.17-5.6,.5-10-2-4.64-2.64-6.49-6.74-7-8h4c.7,1.05,2.56,3.56,6,5,2.51,1.05,4.76,1.08,6,1v-7c2.33-.67,4.67-1.33,7-2,.98-.64,2.68-1.57,5-2,2.12-.39,3.89-.2,5,0,.33,6.67,.67,13.33,1,20,2.03,.44,6.81,1.18,12-1,9.38-3.94,11.76-13.9,12-15h4c-1,2.33-2,4.67-3,7,1.07,.21,2.45,.32,4,0,5.24-1.1,7.65-6.23,8-7h5c-2.72,3.04-6.65,6.73-12,10-2.85,1.74-5.57,3.03-8,4-2.28,1.84-5.61,4.13-10,6-4.28,1.82-8.14,2.62-11,3l3,63Z" fill="none" stroke="#000" stroke-miterlimit="10"/><path d="M33.71,102.85c-5.34,.52-11.02,.88-17,1-3.09,.06-6.09,.06-9,0-5.14-1.85-8.06-7.11-7-12,.89-4.15,4.51-7.4,9-8-.28-.44-2.07-3.38-1-7,.95-3.2,3.46-4.7,4-5,.13-.89,.63-3.63,3-6,.63-.63,2.69-2.53,6-3-.51-1.59-4.23-13.95,3-23,1.87-2.33,4.04-3.92,6-5-.04-.29-.7-6.4,4-10,3.38-2.59,7.23-2.11,8-2-.42-3.45,1.23-6.68,4-8,2.77-1.33,5.53-.2,6,0-.32-1.22-.25-2.2,0-3,1.6-5.04,12.1-7.21,26-6-.42-1.18-.76-2.79,0-4,1.28-2.04,4.61-1.23,13-1,8.7,.24,11.63-.45,14,2,1.24,1.28,1.76,2.83,2,4,1.32,.14,4.34,.65,7,3,5.04,4.46,4.09,11.41,4,12,.73-.24,5.4-1.69,10,1,5.53,3.23,5.97,9.51,6,10,1.72,.22,8.36,1.27,13,7,4.8,5.92,5.56,14.5,2,22,1.27,.17,4.98,.85,8,4,1.76,1.84,2.6,3.79,3,5,.36,.08,3.54,.84,5,4,1.35,2.92,.18,5.61,0,6,6.22,2.83,9.82,9.03,9,15-.87,6.28-6.24,9.56-7,10-21,.33-42,.67-63,1-1.47-1.4-3.8-3.2-7-4-5.63-1.42-9.96,1.27-15,3-6.37,2.19-12.58,1.79-25,1-8.99-.58-17.05-2.11-24-4Z" fill="none" stroke="#000" stroke-miterlimit="10"/></g></g></svg>